<?xml version="1.0" standalone="no"?><!DOCTYPE svg PUBLIC "-//W3C//DTD SVG 1.1//EN" "http://www.w3.org/Graphics/SVG/1.1/DTD/svg11.dtd"><svg t="1735886238853" class="icon" viewBox="0 0 2933 1024" version="1.1" xmlns="http://www.w3.org/2000/svg" p-id="3609" xmlns:xlink="http://www.w3.org/1999/xlink" width="572.8515625" height="200"><path d="M2396.71097177 1013.09779915H544.85679505a504.2960441 504.2960441 0 1 1 0-1008.19656135h1851.85417672a504.2960441 504.2960441 0 1 1 0 1008.19656135zM544.85679505 44.45386924a464.74341261 464.74341261 0 1 0 0 929.09129843h1851.85417672a464.74341261 464.74341261 0 1 0 0-929.09129843z" fill="#F8AA19" p-id="3610"></path><path d="M60.33706613 508.80175506A484.51972779 484.51972779 0 1 0 544.85679505 24.67755411 484.51972779 484.51972779 0 0 0 60.33706613 508.80175506z m1e-8 0" fill="#F8AA19" p-id="3611"></path><path d="M608.14100427 654.75096296L399.30311287 326.06860119a17.00763079 17.00763079 0 0 0-9.88815814-4.74631623H269.57048323l-4.74631508 4.74631623v4.7463151L535.36416259 768.26701428h4.74631623l4.74631623-4.74631623 63.28420922-98.88157696z m208.83789028-333.82420368h-124.59078656c-4.74631623 0-9.88815818 0-4.74631625 9.88815701l-103.62789317 155.44183923c-4.74631623 0-4.74631623 0-4.74631508 4.74631627v4.74631505l63.28420917 94.13526188v4.74631623h4.74631623l4.74631511-4.74631623 165.32999736-268.95788944z m0 0" fill="#FFFFFF" p-id="3612"></path><path d="M1510.73204057 534.90649149h-322.35394161v145.94920787c0 20.96289451 9.88815818 30.85105153 30.8510515 30.85105267h260.65183744c9.88815818 0 16.21657827-4.74631623 26.10473646-9.88815816s16.21657827-35.59736775 16.2165794-94.13526072l47.06763094 16.21657828c-4.74631623 68.03052545-16.21657827 103.62789319-26.10473643 115.09815524s-30.85105153 16.21657827-51.81394717 20.9628945h-286.7565739c-42.3213147 0-63.28420921-20.96289451-63.28420917-68.03052429v-270.14446993h51.813946v72.77684168h270.53999561V369.97202096H1120.3475735V322.90439001h395.13078218v213.97973332h-4.74631511z m103.62789321-87.41131378h119.84447144v218.72604842c16.21657827-9.88815818 30.85105153-26.10473643 51.81394602-47.06763095l9.88815819 51.81394719c-30.85105153 30.85105153-68.03052545 56.56026226-110.35184016 82.66499867l-20.96289451-41.92578901a30.85105153 30.85105153 0 0 0 16.21657827-26.10473644v-187.87499689h-72.77684051v-51.81394604h6.32842126z m68.0305243-152.27762916a728.95498694 728.95498694 0 0 1 88.99341993 77.91868246l-35.59736775 35.59736887c-20.96289451-26.10473643-51.81394603-51.81394603-88.99341996-77.9186836z m282.01025878 0c0 47.06763094 0 88.99341995-4.74631625 124.5907877 26.10473643 129.73262962 72.77684053 228.61420658 140.80736597 307.71946835l-35.59736777 42.32131472a694.54419854 694.54419854 0 0 1-119.84447143-239.68894293l-4.74631512 20.96289451c-20.96289451 88.99341995-63.28420921 162.16578617-129.73262961 218.72604842l-30.85105265-42.32131472c56.56026226-51.81394603 98.88157698-115.09815637 115.09815638-187.87499687 16.21657827-63.28420921 20.96289451-145.94920789 20.9628945-244.43525918z m171.65841746 152.27762916h119.84447149V661.47491103c9.88815818-9.88815818 26.10473643-20.96289451 47.0676309-41.925789l9.88815816 51.81394601a807.66472192 807.66472192 0 0 1-98.88157808 82.6649987l-20.96289336-47.06763095c9.88815818-4.74631623 9.88815818-16.21657827 9.888157-26.10473643v-187.87499575h-73.17236736v-47.06763095h6.32842125z m66.44842041-152.27762916q53.39605219 38.76157781 82.66499871 77.91868246l-35.59736776 35.59736887a429.14604486 429.14604486 0 0 0-82.66499872-77.9186836z m251.15920613 63.28420919h-140.80736599V311.43412683h296.6447309v47.06763093h-104.02341889v136.06105087H2599.61596874v47.06763095h-94.13526186v166.91210124h115.09815636v46.67210526h-322.3539416v-46.67210526h47.0676298v-267.37578439h47.06763094v265.79367938h63.2842092V358.50175774z m0 0" fill="#F8AA19" p-id="3613"></path></svg>