<?xml version="1.0" standalone="no"?><!DOCTYPE svg PUBLIC "-//W3C//DTD SVG 1.1//EN" "http://www.w3.org/Graphics/SVG/1.1/DTD/svg11.dtd"><svg t="1735887050986" class="icon" viewBox="0 0 1024 1024" version="1.1" xmlns="http://www.w3.org/2000/svg" p-id="13057" xmlns:xlink="http://www.w3.org/1999/xlink" width="200" height="200"><path d="M845.312 679.936H177.664c-92.672 0-167.936-75.264-167.936-167.936s75.264-167.936 167.936-167.936h668.16c92.672 0 167.936 75.264 167.936 167.936-2.048 92.672-77.312 167.936-168.448 167.936zM178.176 353.792C90.624 353.792 19.968 424.96 19.968 512c0 87.552 71.168 158.208 158.208 158.208h668.16c86.016 0 156.672-71.168 158.208-158.72 0-87.552-71.168-158.208-158.208-158.208H178.176v0.512z" fill="#999999" p-id="13058"></path><path d="M181.248 512m-166.4 0a166.4 166.4 0 1 0 332.8 0 166.4 166.4 0 1 0-332.8 0Z" fill="#999999" p-id="13059"></path><path d="M200.704 567.808l-71.68-113.152s-1.536-1.536-3.584-1.536h-41.472l-1.536 1.536v1.536l93.184 150.528h1.536l1.536-1.536 21.504-33.792c0.512-0.512 3.072-0.512 0.512-3.584z m72.192-114.688h-43.008c-1.536 0-3.584 0-1.536 3.584l-35.84 53.248c-1.536 0-1.536 0-1.536 1.536v1.536l21.504 32.256v1.536h1.536l1.536-1.536 57.344-92.16c5.632 0 0 0 0 0z" fill="#FFFFFF" p-id="13060"></path><path d="M457.216 440.32h17.92v23.552h58.88v16.384H475.136v28.672h69.632v16.384H488.96c12.288 21.504 32.256 39.424 58.88 55.808l-12.288 16.384c-28.672-21.504-48.64-44.544-60.928-71.68v80.896h-17.92v-80.896c-12.288 28.672-33.792 53.248-62.976 71.68l-10.752-16.384c26.624-14.336 46.592-33.792 58.88-55.808H387.072v-16.384h69.632v-28.672H397.312v-16.384h58.88l1.024-23.552zM563.2 492.544h41.472v75.264c5.632-3.584 10.752-8.704 17.92-16.384l3.584 17.92c-10.752 10.752-23.552 19.456-35.84 28.672l-7.168-16.384c3.584-1.536 5.632-5.632 5.632-8.704V507.904h-25.088l-0.512-15.36z m25.088-52.224c12.288 8.704 21.504 17.92 28.672 26.624l-10.752 12.288c-7.168-8.704-17.92-17.92-30.72-26.624l12.8-12.288z m94.72 0c0 16.384 0 30.72-1.536 43.008 8.704 44.544 25.088 78.336 48.64 105.984l-12.288 14.336c-17.92-23.552-32.256-50.176-41.472-82.432l-1.536 7.168c-7.168 30.72-21.504 55.808-44.544 75.264l-10.752-14.336c19.456-17.92 33.792-39.424 39.424-64.512 5.632-21.504 7.168-50.176 7.168-83.968h16.896V440.32zM741.888 492.544h41.472v73.728c3.584-3.584 8.704-7.168 16.384-14.336l3.584 17.92c-10.752 10.752-21.504 19.456-33.792 28.672l-7.168-16.384c3.584-1.536 3.584-5.632 3.584-8.704V507.904h-25.088l1.024-15.36z m25.088-52.224c12.288 8.704 21.504 17.92 28.672 26.624l-12.288 12.288c-7.168-8.704-16.384-17.92-28.672-26.624l12.288-12.288z m86.016 23.04h-48.64v-16.384H906.24v16.384h-35.84v46.592h32.256v16.384H870.4V583.68h39.424v16.384H798.72V583.68h16.384V492.544h16.384V583.68h21.504V463.36z" fill="#999999" p-id="13061"></path></svg>