<?xml version="1.0" standalone="no"?><!DOCTYPE svg PUBLIC "-//W3C//DTD SVG 1.1//EN" "http://www.w3.org/Graphics/SVG/1.1/DTD/svg11.dtd"><svg class="icon" width="200px" height="200.00px" viewBox="0 0 1024 1024" version="1.1" xmlns="http://www.w3.org/2000/svg"><path d="M512 930.909091C448.465455 930.909091 69.818182 651.636364 69.818182 401.687273A302.545455 302.545455 0 0 1 367.941818 93.090909 289.512727 289.512727 0 0 1 512 131.956364 289.512727 289.512727 0 0 1 656.058182 93.090909 302.545455 302.545455 0 0 1 954.181818 401.687273C954.181818 651.636364 575.534545 930.909091 512 930.909091zM367.941818 162.909091A232.727273 232.727273 0 0 0 139.636364 401.687273C139.636364 600.436364 451.490909 834.094545 512 861.090909c60.509091-26.065455 372.363636-259.723636 372.363636-458.472727A232.727273 232.727273 0 0 0 656.058182 162.909091a218.996364 218.996364 0 0 0-124.276364 38.632727l-19.781818 13.963637-19.781818-13.498182A218.996364 218.996364 0 0 0 367.941818 162.909091z" /></svg>