<?xml version="1.0" encoding="utf-8"?>
<!-- Generator: Adobe Illustrator 27.0.0, SVG Export Plug-In . SVG Version: 6.00 Build 0)  -->
<svg version="1.1" id="图层_1" xmlns="http://www.w3.org/2000/svg" xmlns:xlink="http://www.w3.org/1999/xlink" x="0px" y="0px"
	 viewBox="0 0 200 200" style="enable-background:new 0 0 200 200;" xml:space="preserve">
<path d="M188.2,143.8c-2.7-14.8-9.9-20.4-15.7-24.9c-5.3-4.1-9.5-7.3-11.1-18.1c-2.4-15.8-7-28-13.9-37.2
	c-3.9-5.2-8.7-9.6-14.2-13.1c-5.7-3.5-12.3-6.2-19.8-7.8c-8.7-2-17.1-2.2-25.1-0.8c-7,1.2-13.7,3.8-19.7,7.5
	C55.4,57.5,48.4,69.2,46,73.8c-8.6,16.6-9.8,42.5,5,57.7c8.3,8.6,22.3,10.2,35.8,11.7c10,1.1,20.3,2.3,24.3,6.3
	c3.6,3.6,6,8.1,8.5,12.8c4.6,8.8,9.9,18.9,24.1,24.1c3.9,1.4,8,2.2,12.2,2.2c1.8,0,3.5-0.1,5.3-0.4c5.8-0.9,11.2-3.4,15.7-7.1
	c4.7-4,8.3-9.3,10.2-15.5C189.3,159.1,189.6,151.7,188.2,143.8L188.2,143.8z M168.9,171.5c-5.6,4.7-13.6,5.9-20.9,3.2
	c-9.7-3.6-13.1-10.1-17.4-18.2c-2.8-5.4-5.7-10.9-10.7-15.8c-7-7.1-19-8.4-31.7-9.8c-11.3-1.3-23-2.6-28.3-8
	c-11.4-11.7-8.5-32.3-2.9-43.2c2.5-4.8,15-26,41.4-26c4.1,0,8.1,0.5,12.1,1.4c22.5,5,33.9,19.3,38.3,47.8
	c2.4,15.7,9.9,21.5,15.8,26.1c5.2,4,9.3,7.2,11.1,17.2C177.8,157,175.4,166.1,168.9,171.5z M40.9,47.1c-2.4,2.5-6.3,2.6-8.8,0.2
	c-2.5-2.4-2.6-6.3-0.2-8.8c0.5-0.5,11.5-12,27.5-19.2c16-7.2,28.8-7.9,29.3-7.9c3.4-0.2,6.4,2.5,6.6,5.9s-2.5,6.4-5.9,6.6
	c-0.1,0-11.2,0.7-24.9,6.9S41,47,40.9,47.1z M29,60.8c0,4.5-3.7,8.2-8.2,8.2s-8.2-3.7-8.2-8.2s3.7-8.2,8.2-8.2l0,0
	C25.3,52.6,28.9,56.3,29,60.8L29,60.8z"/>
</svg>
