<?xml version="1.0" standalone="no"?><!DOCTYPE svg PUBLIC "-//W3C//DTD SVG 1.1//EN" "http://www.w3.org/Graphics/SVG/1.1/DTD/svg11.dtd"><svg class="icon" width="200px" height="200.00px" viewBox="0 0 1024 1024" version="1.1" xmlns="http://www.w3.org/2000/svg"><path d="M772.887273 930.909091H251.112727A134.749091 134.749091 0 0 1 116.363636 796.392727V374.225455a34.676364 34.676364 0 0 1 15.127273-28.858182l360.727273-246.225455a34.676364 34.676364 0 0 1 39.330909 0l360.96 246.225455a35.374545 35.374545 0 0 1 15.127273 28.858182v422.167272A134.749091 134.749091 0 0 1 772.887273 930.909091zM186.181818 392.610909v403.781818A64.930909 64.930909 0 0 0 251.112727 861.090909h521.774546A64.930909 64.930909 0 0 0 837.818182 796.392727V392.610909L512 170.356364z" /></svg>