<?xml version="1.0" standalone="no"?><!DOCTYPE svg PUBLIC "-//W3C//DTD SVG 1.1//EN" "http://www.w3.org/Graphics/SVG/1.1/DTD/svg11.dtd"><svg class="icon" width="200px" height="193.57px" viewBox="0 0 1058 1024" version="1.1" xmlns="http://www.w3.org/2000/svg"><path d="M494.893663 924.10144A429.207777 429.207777 0 1 1 922.301827 494.893663a429.207777 429.207777 0 0 1-427.408164 429.207777z m0-790.930054A361.722277 361.722277 0 1 0 854.816327 494.893663 361.947229 361.947229 0 0 0 494.893663 133.171386z"  /><path d="M989.787326 1023.979979a32.617991 32.617991 0 0 1-23.844876-9.897873L764.835661 813.425221A33.74275 33.74275 0 0 1 812.750366 764.835661l200.881837 202.456499a33.967701 33.967701 0 0 1 0 47.689753 33.067895 33.067895 0 0 1-23.844877 8.998066z"  /></svg>