<?xml version="1.0" standalone="no"?><!DOCTYPE svg PUBLIC "-//W3C//DTD SVG 1.1//EN" "http://www.w3.org/Graphics/SVG/1.1/DTD/svg11.dtd"><svg class="icon" width="200px" height="200.00px" viewBox="0 0 1024 1024" version="1.1" xmlns="http://www.w3.org/2000/svg"><path d="M512 977.454545a465.454545 465.454545 0 1 1 465.454545-465.454545 465.454545 465.454545 0 0 1-465.454545 465.454545z m0-861.090909a395.636364 395.636364 0 1 0 395.636364 395.636364A395.636364 395.636364 0 0 0 512 116.363636z"  /><path d="M513.861818 748.683636a279.272727 279.272727 0 0 1-183.156363-68.421818 34.909091 34.909091 0 0 1 46.545454-52.829091A209.454545 209.454545 0 0 0 651.636364 628.363636a34.909091 34.909091 0 0 1 46.545454 52.829091 279.272727 279.272727 0 0 1-184.32 67.490909z"  /></svg>